# xmcd CD database file
#
# Track frame offsets:
#	182
#	10810
#	24782
#	38207
#	55457
#	64307
#	93107
#	104957
#	116850
#	131432
#	144557
#	154757
#	168257
#	186557
#	200132
#	211682
#	223832
#	240707
#
# Disc length: 3381 seconds
#
# Revision: 0
# Processed by: cddbd v1.5.2PL0 Copyright (c) Steve Scherf et al.
# Submitted via: ACXtractor (MTCDDB.DLL V2003.12.21)
#
DISCID=0e0d3312
DTITLE=Lindsay Butler - The Tamworth Guitar Story
DYEAR=2000
DGENRE=Country
TTITLE0=The White Rabbit
TTITLE1=Last Date
TTITLE2=Snowbird
TTITLE3=Walk Away
TTITLE4=Flower of the West
TTITLE5=My Tribute to Buddy
TTITLE6=Tamworth Guitar
TTITLE7=Blue Eyes Crying in the Rain
TTITLE8=Forty Miles of Bad Road
TTITLE9=She Even Wake Me Up to Say Goodbye
TTITLE10=Len's Theme
TTITLE11=Daddy Don't You Walk so Fast
TTITLE12=Old Wallerawang
TTITLE13=Born to Lose
TTITLE14=The Street Fighter
TTITLE15=The House Where the Wind Blows Cold
TTITLE16=Mamma's Hungry Eyes
TTITLE17=Waltzing Matilda
EXTD=ID3G:   2 YEAR: 2000
EXTT0=
EXTT1=
EXTT2=
EXTT3=
EXTT4=
EXTT5=
EXTT6=
EXTT7=
EXTT8=
EXTT9=
EXTT10=
EXTT11=
EXTT12=
EXTT13=
EXTT14=
EXTT15=
EXTT16=
EXTT17=
PLAYORDER=
